<svg width="25" height="25" viewBox="0 0 25 25" fill="none" xmlns="http://www.w3.org/2000/svg">
<path d="M10.0976 23.8579C10.1009 20.7502 9.95137 17.6932 9.95468 14.5855C8.98712 14.5845 8.07048 14.5835 7.10291 14.5825C7.10411 13.4616 7.1053 12.3408 7.1065 11.22C8.07406 11.221 8.9907 11.222 10.0092 11.2231C10.0093 11.1212 10.0094 11.0193 10.0095 10.9174C10.0105 10.0004 10.0114 9.13428 10.0633 8.21729C10.1155 7.04558 10.524 5.97614 11.4415 5.21292C12.1551 4.60232 13.0211 4.29757 13.9378 4.29854C14.9053 4.29957 15.8219 4.3515 16.7894 4.40348C16.8403 4.40353 16.9421 4.50553 16.942 4.55648C16.9411 5.47351 16.94 6.4415 16.939 7.40948C16.8371 7.40937 16.7353 7.40926 16.6844 7.40921C16.0733 7.40856 15.4113 7.40785 14.8001 7.45814C14.3418 7.45766 13.9342 7.61006 13.6791 8.06831C13.5771 8.27199 13.5259 8.52666 13.5256 8.73045C13.5248 9.54559 13.5239 10.3607 13.523 11.1759C14.6434 11.1771 15.7128 11.1782 16.8331 11.1794C16.6792 12.3001 16.5252 13.4207 16.3712 14.5414C15.4037 14.5404 14.4361 14.5393 13.4685 14.5383C13.4652 17.697 13.4619 20.8047 13.4584 24.0143C14.1715 23.8622 14.9356 23.7102 15.5978 23.5071C19.877 22.0343 22.5791 19.1332 23.7041 14.753C23.8575 14.1927 23.9091 13.5814 23.9607 12.9701C23.9607 12.9192 24.0117 12.8173 24.0118 12.7664C24.0123 12.3079 24.0128 11.8494 24.0133 11.3399C23.9629 10.8813 23.9124 10.4228 23.8111 9.96413C23.1531 6.19338 21.0682 3.33816 17.7092 1.44956C15.8261 0.377675 13.7387 -0.0321213 11.5998 0.0165458C6.91458 0.164392 2.58279 3.16562 0.897671 7.49428C-0.225708 10.3461 -0.279673 13.199 0.735777 16.0531C1.49731 18.2446 2.81939 20.0801 4.70208 21.5086C6.22862 22.6311 8.16293 23.3973 10.0976 23.8579Z" fill="#3C91E6"/>
</svg>
