<svg width="26" height="26" viewBox="0 0 26 26" fill="none" xmlns="http://www.w3.org/2000/svg">
<path d="M22.3751 25.1875H22.2158C3.79389 24.1281 1.17827 8.58437 0.81264 3.84063C0.78318 3.47179 0.826786 3.10077 0.940961 2.74882C1.05514 2.39687 1.23763 2.07091 1.478 1.78961C1.71837 1.50831 2.01188 1.27721 2.34171 1.10954C2.67155 0.941867 3.03123 0.840927 3.40014 0.812501H8.56577C8.94129 0.812137 9.30827 0.924541 9.61917 1.13515C9.93007 1.34576 10.1706 1.64488 10.3095 1.99375L11.7345 5.5C11.8717 5.84082 11.9058 6.21445 11.8324 6.57446C11.7591 6.93447 11.5816 7.265 11.322 7.525L9.32514 9.54063C9.63706 11.3132 10.4859 12.9472 11.7569 14.2215C13.0279 15.4959 14.6596 16.349 16.4314 16.6656L18.4658 14.65C18.7297 14.3933 19.0633 14.2199 19.4251 14.1516C19.7869 14.0832 20.1608 14.1229 20.5001 14.2656L24.0345 15.6812C24.3781 15.8246 24.6713 16.067 24.8766 16.3775C25.082 16.688 25.1903 17.0527 25.1876 17.425V22.375C25.1876 23.1209 24.8913 23.8363 24.3639 24.3637C23.8364 24.8912 23.1211 25.1875 22.3751 25.1875ZM3.62514 2.6875C3.3765 2.6875 3.13804 2.78627 2.96223 2.96209C2.78641 3.1379 2.68764 3.37636 2.68764 3.625V3.7C3.11889 9.25 5.88452 22.375 22.3189 23.3125C22.4421 23.3201 22.5655 23.3033 22.6822 23.2631C22.7988 23.2229 22.9064 23.1601 22.9987 23.0782C23.0911 22.9963 23.1663 22.897 23.2202 22.786C23.2741 22.675 23.3055 22.5544 23.3126 22.4312V17.425L19.7783 16.0094L17.0876 18.6812L16.6376 18.625C8.48139 17.6031 7.37514 9.44687 7.37514 9.3625L7.31889 8.9125L9.98139 6.22188L8.57514 2.6875H3.62514Z" fill="#2F8AE6"/>
</svg>
