<svg width="110" height="110" viewBox="0 0 110 110" fill="none" xmlns="http://www.w3.org/2000/svg">
<circle cx="55" cy="55" r="54" fill="#F4F4F4" stroke="#2F8AE6" stroke-width="2"/>
<path d="M76.1953 70.1719C75.0414 67.4774 73.3669 65.03 71.2651 62.9658C69.1696 60.8957 66.6873 59.2453 63.9553 58.1055C63.9308 58.0935 63.9063 58.0874 63.8819 58.0754C67.6927 55.3618 70.1701 50.9417 70.1701 45.9548C70.1701 37.6935 63.3803 31 55 31C46.6197 31 39.8299 37.6935 39.8299 45.9548C39.8299 50.9417 42.3073 55.3618 46.1181 58.0814C46.0937 58.0935 46.0692 58.0995 46.0447 58.1116C43.3043 59.2513 40.8453 60.8854 38.7349 62.9719C36.635 65.0376 34.9608 67.4846 33.8047 70.1779C32.6689 72.8146 32.0563 75.6415 32.0002 78.5055C31.9985 78.5699 32.01 78.6339 32.0338 78.6938C32.0577 78.7538 32.0935 78.8084 32.1391 78.8545C32.1847 78.9006 32.2392 78.9372 32.2994 78.9622C32.3596 78.9872 32.4242 79 32.4895 79H36.1597C36.4288 79 36.6429 78.7889 36.6491 78.5297C36.7714 73.8744 38.6677 69.5146 42.0198 66.2101C45.4881 62.791 50.0942 60.9095 55 60.9095C59.9058 60.9095 64.5119 62.791 67.9802 66.2101C71.3323 69.5146 73.2286 73.8744 73.3509 78.5297C73.3571 78.795 73.5712 79 73.8403 79H77.5105C77.5758 79 77.6404 78.9872 77.7006 78.9622C77.7608 78.9372 77.8153 78.9006 77.8609 78.8545C77.9065 78.8084 77.9423 78.7538 77.9662 78.6938C77.99 78.6339 78.0015 78.5699 77.9998 78.5055C77.9387 75.6231 77.3331 72.8191 76.1953 70.1719ZM55 56.3266C52.1923 56.3266 49.5498 55.2472 47.5618 53.2874C45.5737 51.3276 44.4788 48.7226 44.4788 45.9548C44.4788 43.1869 45.5737 40.5819 47.5618 38.6221C49.5498 36.6623 52.1923 35.5829 55 35.5829C57.8077 35.5829 60.4502 36.6623 62.4382 38.6221C64.4263 40.5819 65.5212 43.1869 65.5212 45.9548C65.5212 48.7226 64.4263 51.3276 62.4382 53.2874C60.4502 55.2472 57.8077 56.3266 55 56.3266Z" fill="#2F8AE6"/>
<path d="M77 33H74M77 30V33V30ZM77 33V36V33ZM77 33H80H77Z" stroke="#2F8AE6" stroke-width="2" stroke-linecap="round"/>
<path d="M77 40.5C81.1421 40.5 84.5 37.1421 84.5 33C84.5 28.8579 81.1421 25.5 77 25.5C72.8579 25.5 69.5 28.8579 69.5 33C69.5 37.1421 72.8579 40.5 77 40.5Z" stroke="#2F8AE6" stroke-width="2"/>
</svg>
