<svg width="32" height="32" viewBox="0 0 32 32" fill="none" xmlns="http://www.w3.org/2000/svg">
<path d="M27.125 5C27.7652 5 28.3991 5.1261 28.9906 5.37109C29.582 5.61608 30.1195 5.97517 30.5721 6.42785C31.0248 6.88054 31.3839 7.41796 31.6289 8.00942C31.8739 8.60088 32 9.2348 32 9.875V27.125C32 27.7652 31.8739 28.3991 31.6289 28.9906C31.3839 29.582 31.0248 30.1195 30.5721 30.5721C30.1195 31.0248 29.582 31.3839 28.9906 31.6289C28.3991 31.8739 27.7652 32 27.125 32H9.875C9.2348 32 8.60088 31.8739 8.00942 31.6289C7.41796 31.3839 6.88054 31.0248 6.42785 30.5721C5.97517 30.1195 5.61608 29.582 5.37109 28.9906C5.1261 28.3991 5 27.7652 5 27.125V17.753C5.711 18.05 6.4655 18.263 7.25 18.386V27.125C7.25 27.437 7.304 27.737 7.4045 28.016L16.139 19.4645C16.7378 18.8783 17.5331 18.5359 18.3704 18.5037C19.2077 18.4715 20.027 18.752 20.669 19.2905L20.861 19.4645L29.594 28.0175C29.6945 27.7385 29.75 27.4385 29.75 27.125V9.875C29.75 9.17881 29.4734 8.51113 28.9811 8.01884C28.4889 7.52656 27.8212 7.25 27.125 7.25H18.386C18.2666 6.4772 18.0541 5.7217 17.753 5H27.125ZM17.8385 20.966L17.7125 21.071L9.002 29.6015C9.275 29.6975 9.569 29.75 9.875 29.75H27.125C27.4295 29.75 27.7235 29.6975 27.995 29.6015L19.2875 21.0725C19.0975 20.8863 18.8478 20.7735 18.5825 20.754C18.3172 20.7345 18.0536 20.8096 17.8385 20.966ZM23.378 10.25C24.2739 10.25 25.1331 10.6059 25.7666 11.2394C26.4001 11.8729 26.756 12.7321 26.756 13.628C26.756 14.5239 26.4001 15.3831 25.7666 16.0166C25.1331 16.6501 24.2739 17.006 23.378 17.006C22.4821 17.006 21.6229 16.6501 20.9894 16.0166C20.3559 15.3831 20 14.5239 20 13.628C20 12.7321 20.3559 11.8729 20.9894 11.2394C21.6229 10.6059 22.4821 10.25 23.378 10.25ZM8.75 0.5C9.8334 0.5 10.9062 0.713392 11.9071 1.12799C12.9081 1.54259 13.8175 2.15029 14.5836 2.91637C15.3497 3.68245 15.9574 4.59193 16.372 5.59286C16.7866 6.5938 17 7.66659 17 8.75C17 9.8334 16.7866 10.9062 16.372 11.9071C15.9574 12.9081 15.3497 13.8175 14.5836 14.5836C13.8175 15.3497 12.9081 15.9574 11.9071 16.372C10.9062 16.7866 9.8334 17 8.75 17C6.56196 17 4.46354 16.1308 2.91637 14.5836C1.36919 13.0365 0.5 10.938 0.5 8.75C0.5 6.56196 1.36919 4.46354 2.91637 2.91637C4.46354 1.36919 6.56196 0.5 8.75 0.5ZM23.378 12.5C23.2299 12.5 23.0832 12.5292 22.9463 12.5859C22.8095 12.6425 22.6851 12.7256 22.5804 12.8304C22.4756 12.9351 22.3925 13.0595 22.3359 13.1963C22.2792 13.3332 22.25 13.4799 22.25 13.628C22.25 13.7761 22.2792 13.9228 22.3359 14.0597C22.3925 14.1965 22.4756 14.3209 22.5804 14.4256C22.6851 14.5304 22.8095 14.6134 22.9463 14.6701C23.0832 14.7268 23.2299 14.756 23.378 14.756C23.6772 14.756 23.9641 14.6372 24.1756 14.4256C24.3872 14.2141 24.506 13.9272 24.506 13.628C24.506 13.3288 24.3872 13.0419 24.1756 12.8304C23.9641 12.6188 23.6772 12.5 23.378 12.5ZM8.75 3.5L8.615 3.5105C8.46514 3.53788 8.32718 3.61024 8.21946 3.71796C8.11174 3.82568 8.03938 3.96364 8.012 4.1135L8 4.25V8H4.247L4.112 8.012C3.96214 8.03938 3.82418 8.11174 3.71646 8.21946C3.60874 8.32718 3.53638 8.46514 3.509 8.615L3.497 8.75L3.509 8.885C3.53638 9.03485 3.60874 9.17282 3.71646 9.28054C3.82418 9.38826 3.96214 9.46062 4.112 9.488L4.247 9.5H8V13.2545L8.012 13.3895C8.03938 13.5394 8.11174 13.6773 8.21946 13.785C8.32718 13.8928 8.46514 13.9651 8.615 13.9925L8.75 14.006L8.885 13.9925C9.03485 13.9651 9.17282 13.8928 9.28054 13.785C9.38826 13.6773 9.46062 13.5394 9.488 13.3895L9.5 13.2545V9.5H13.2575L13.3925 9.488C13.5424 9.46062 13.6803 9.38826 13.788 9.28054C13.8958 9.17282 13.9681 9.03485 13.9955 8.885L14.0075 8.75L13.9955 8.615C13.968 8.46494 13.8954 8.32682 13.7874 8.21908C13.6794 8.11134 13.5411 8.0391 13.391 8.012L13.256 8H9.5V4.25L9.488 4.115C9.4609 3.96487 9.38866 3.82657 9.28092 3.71857C9.17318 3.61056 9.03506 3.53797 8.885 3.5105L8.75 3.5Z" fill="#2F8AE6"/>
</svg>
