<svg width="25" height="25" viewBox="0 0 25 25" fill="none" xmlns="http://www.w3.org/2000/svg">
<path d="M24.0178 7.0984C24.0144 10.3226 24.011 13.5468 24.0075 16.7711C24.0074 16.8718 23.9569 16.9221 23.9568 17.0229C23.9059 17.4763 23.9054 17.98 23.8041 18.4333C23.5504 19.9444 22.8935 21.2536 21.7328 22.2599C20.4711 23.3669 18.958 23.8187 17.3444 23.9177C16.7898 23.9675 16.1847 23.9669 15.6301 24.0166C13.2099 24.0141 10.8401 24.0115 8.41998 24.009C8.26872 24.0088 8.11751 23.9583 7.96625 23.9581C7.00827 23.9571 6.05034 23.9057 5.09262 23.6528C3.12678 23.1469 1.66577 22.037 0.760197 20.172C0.20681 19.0127 0.0568381 17.8035 0.0581802 16.544C0.0104982 13.9747 0.0132899 11.355 0.0160279 8.78569C0.0172627 7.62699 0.0185512 6.41791 0.271887 5.25947C0.727869 3.19444 1.83872 1.68427 3.75565 0.779496C4.91591 0.226569 6.12615 0.0767229 7.33624 0.0780125C10.7649 -0.0190907 14.0422 -0.0155982 17.3698 0.139083C18.3277 0.190483 19.2855 0.393017 20.1422 0.796958C22.3596 1.80689 23.467 3.57132 23.8679 5.88916C23.9179 6.29224 23.9678 6.69532 24.0178 7.0984ZM12.0021 21.8969C12.0021 21.8969 12.0021 21.8465 12.0021 21.8969C12.6576 21.8472 13.2626 21.8982 13.9181 21.8485C15.2795 21.7996 16.6408 21.8011 18.0023 21.6514C19.8681 21.4015 21.0794 20.3448 21.5351 18.5317C21.7376 17.7762 21.7888 17.0206 21.7896 16.2145C21.8426 13.7964 21.8452 11.3783 21.8478 8.96009C21.8488 8.0029 21.7994 7.04566 21.6996 6.08836C21.4495 4.17371 20.2408 2.86258 18.3253 2.45751C17.5187 2.30552 16.6617 2.25423 15.8045 2.25331C13.5357 2.20052 11.3172 2.19815 9.04821 2.24611C7.98939 2.24498 6.93051 2.29423 5.92195 2.4443C4.1065 2.74463 2.89529 3.80129 2.49 5.61448C2.28746 6.42032 2.23612 7.2767 2.23527 8.08276C2.18275 10.0475 2.18071 11.9618 2.17862 13.9266C2.17717 15.2868 2.22619 16.5967 2.376 17.9571C2.52581 19.3175 3.18009 20.4265 4.38943 21.1331C5.14524 21.5873 6.00223 21.7393 6.85931 21.7906C8.5736 21.7925 10.2878 21.8447 12.0021 21.8969Z" fill="#3C91E6"/>
<path d="M12.0561 18.1686C8.6275 18.165 5.90777 15.3912 5.91142 11.9655C5.91507 8.53977 8.69108 5.82229 12.1196 5.82594C15.5482 5.8296 18.2679 8.60331 18.2644 11.9787C18.2103 15.4044 15.4342 18.1722 12.0561 18.1686ZM8.07943 12.0182C8.07707 14.2348 9.83989 16 12.0584 16.0023C14.2769 16.0047 16.0435 14.2433 16.0458 12.0267C16.0482 9.81003 14.2854 7.99453 12.0669 7.99216C9.84838 8.04018 8.08179 9.80154 8.07943 12.0182Z" fill="#3C91E6"/>
<path d="M19.8851 5.5826C19.8843 6.38866 19.2785 7.04293 18.4718 7.04207C17.6651 7.04121 17.0103 6.43597 17.0111 5.62992C17.012 4.82386 17.6177 4.16959 18.4245 4.17045C19.2312 4.17131 19.886 4.77655 19.8851 5.5826Z" fill="#3C91E6"/>
</svg>
