<svg width="30" height="30" viewBox="0 0 30 30" fill="none" xmlns="http://www.w3.org/2000/svg">
<path d="M14.22 0.540039C14.82 0.540039 15.42 0.540039 16.02 0.540039C16.38 0.600039 16.68 0.600039 17.04 0.660039C20.28 1.14004 23.1 2.46004 25.32 4.86004C28.62 8.40004 29.94 12.54 29.16 17.28C28.08 23.82 22.44 28.56 16.08 29.04C13.38 29.22 10.8 28.68 8.34004 27.42C8.22004 27.36 8.10004 27.36 7.98004 27.36C5.46004 28.08 3.00004 28.68 0.540039 29.34C0.540039 29.28 0.540039 29.28 0.540039 29.22C0.540039 29.16 0.600039 29.1 0.600039 28.98C1.20004 26.7 1.86004 24.42 2.46004 22.14C2.52004 22.02 2.46004 21.78 2.40004 21.66C0.780039 18.66 0.240039 15.48 0.840039 12.12C1.98004 5.94004 6.96004 1.74004 12.6 0.720039C13.14 0.660039 13.68 0.600039 14.22 0.540039ZM3.96004 25.86C4.08004 25.86 4.14004 25.8 4.26004 25.8C5.58004 25.44 6.90004 25.14 8.22004 24.78C8.40004 24.72 8.58004 24.78 8.76004 24.84C11.52 26.46 14.46 27 17.58 26.34C23.64 24.96 27.96 19.2 26.7 12.54C25.62 6.42004 19.8 2.22004 13.68 2.94004C10.14 3.36004 7.32004 5.04004 5.28004 7.98004C3.54004 10.44 2.88004 13.2 3.18004 16.14C3.36004 18 4.02004 19.68 5.04004 21.24C5.16004 21.42 5.16004 21.54 5.10004 21.72C4.92004 22.32 4.74004 22.98 4.56004 23.64C4.38004 24.42 4.20004 25.14 3.96004 25.86Z" fill="#2F8AE6"/>
<path d="M18.7199 21.5996C17.8199 21.5996 16.9799 21.2396 16.1399 20.9396C13.7399 20.0996 11.8199 18.5396 10.2599 16.5596C9.47988 15.5996 8.69988 14.6996 8.21988 13.5596C7.67988 12.3596 7.49988 11.0996 8.09988 9.83961C8.33988 9.35961 8.63988 8.99961 8.93988 8.57961C9.17988 8.27961 9.47988 8.15961 9.89988 8.09961C10.1999 8.09961 10.4999 8.09961 10.7999 8.09961C10.9199 8.09961 11.0999 8.21961 11.2199 8.33961C11.3399 8.45961 11.3999 8.63961 11.4599 8.81961C11.8199 9.65961 12.1799 10.4996 12.5399 11.3396C12.6599 11.5796 12.6599 11.8796 12.4799 12.0596C12.2399 12.4196 11.9399 12.7796 11.6399 13.1396C11.3399 13.4996 11.3399 13.6196 11.5799 14.0396C12.7199 15.9596 14.2799 17.3396 16.3799 18.1796C16.7999 18.3596 16.9799 18.3596 17.2799 17.9396C17.6399 17.5196 17.9399 17.0996 18.2999 16.7396C18.5399 16.4396 18.6599 16.3796 19.0199 16.4996C19.0799 16.4996 19.1999 16.5596 19.2599 16.6196C20.0999 16.9796 20.9999 17.3996 21.8399 17.7596C22.1399 17.8796 22.2599 18.1196 22.2599 18.4796C22.2599 20.3996 20.7599 21.2396 19.3199 21.4796C19.1399 21.5996 18.9599 21.5996 18.7199 21.5996Z" fill="#2F8AE6"/>
</svg>
