<?xml version="1.0" standalone="no"?>
<!DOCTYPE svg PUBLIC "-//W3C//DTD SVG 20010904//EN"
 "http://www.w3.org/TR/2001/REC-SVG-20010904/DTD/svg10.dtd">
<svg version="1.0" xmlns="http://www.w3.org/2000/svg"
 width="1278.000000pt" height="558.000000pt" viewBox="0 0 1278.000000 558.000000"
 preserveAspectRatio="xMidYMid meet">
<metadata>
Created by potrace 1.16, written by Peter Selinger 2001-2019
</metadata>
<g transform="translate(0.000000,558.000000) scale(0.100000,-0.100000)"
fill="#000000" stroke="none">
<path d="M7879 5578 c-4 -13 -8 -114 -13 -333 -4 -143 -9 -330 -11 -415 -10
-337 -18 -618 -19 -685 -5 -210 -7 -246 -15 -241 -5 3 -11 -3 -14 -14 -3 -11
-2 -18 3 -15 11 7 20 -73 20 -174 0 -65 -4 -93 -17 -111 -16 -22 -16 -23 1
-17 15 6 17 -3 15 -109 -1 -63 1 -117 3 -119 2 -3 21 7 41 20 20 14 39 25 42
25 14 0 -9 -22 -60 -56 -30 -20 -55 -39 -55 -42 -1 -4 -19 -27 -41 -52 -30
-34 -38 -39 -31 -20 9 24 27 275 24 334 -1 16 -6 34 -12 40 -13 13 -256 9
-281 -4 -9 -5 -212 -17 -452 -27 l-436 -17 -7 -25 -7 -26 -6 25 c-4 14 -19 31
-33 40 -24 13 -29 13 -45 -2 -20 -18 -250 -29 -998 -49 -231 -6 -430 -12 -442
-15 -43 -8 -52 -39 -62 -224 -5 -96 -6 -179 -2 -185 28 -38 91 -221 91 -262 0
-9 18 -56 41 -105 45 -98 45 -101 15 -260 -31 -162 -76 -321 -97 -344 -11 -12
-35 -29 -53 -39 -33 -18 -33 -20 -39 -99 -3 -45 -6 -87 -8 -95 -2 -9 5 -16 16
-18 11 -2 29 -9 41 -14 17 -9 48 8 210 117 220 148 272 185 362 263 37 31 97
80 134 109 37 29 70 61 73 72 3 10 28 37 55 60 49 41 100 127 100 169 0 11 5
23 12 27 7 5 9 2 6 -7 -3 -8 -2 -23 2 -34 4 -11 3 -33 -3 -50 -16 -52 -59
-135 -68 -135 -5 0 -14 -11 -19 -25 -6 -15 -25 -32 -44 -40 -19 -8 -47 -32
-63 -52 -15 -21 -35 -45 -43 -53 -8 -9 -29 -32 -46 -51 -17 -19 -70 -70 -119
-114 -49 -44 -97 -88 -107 -98 -10 -9 -25 -17 -34 -17 -8 0 -12 -4 -9 -10 3
-5 3 -10 -2 -10 -4 0 -22 -12 -38 -28 -17 -15 -57 -49 -90 -77 -33 -27 -73
-62 -89 -77 -16 -16 -33 -28 -39 -28 -5 0 -15 -7 -22 -17 -8 -11 -29 -17 -62
-18 -52 -2 -113 -30 -113 -53 0 -7 -4 -11 -9 -8 -4 3 -19 -6 -31 -19 -13 -14
-27 -25 -32 -25 -5 0 -23 -13 -41 -30 -18 -16 -39 -30 -47 -30 -9 0 -26 -7
-38 -16 -30 -21 -192 -103 -192 -98 0 3 -11 -3 -25 -12 -14 -9 -28 -14 -31
-11 -3 3 -24 -4 -46 -15 -27 -14 -63 -22 -107 -24 -36 -1 -79 -5 -96 -8 -44
-10 -77 -10 -102 -2 -20 6 -21 4 -18 -25 4 -27 2 -30 -15 -26 -11 3 -18 1 -14
-4 3 -5 -1 -9 -8 -10 -7 0 -23 -2 -35 -3 -13 -2 -23 1 -23 6 0 5 -4 6 -10 3
-5 -3 -10 -14 -10 -25 0 -22 -23 -33 -39 -17 -8 8 -11 6 -11 -10 0 -33 -29
-37 -42 -5 -13 35 4 187 26 231 22 42 150 131 189 131 16 0 41 8 55 19 35 25
96 41 154 41 43 0 172 -40 191 -59 9 -9 67 -2 67 8 0 3 4 12 9 19 7 11 12 11
28 1 11 -7 28 -9 38 -5 16 6 17 15 12 76 -3 39 -4 70 -2 70 3 0 17 -19 32 -43
47 -72 61 -74 86 -13 10 24 22 74 28 111 5 36 18 84 30 106 19 38 19 79 -2 79
-25 0 -4 21 32 31 70 21 71 67 1 53 -19 -4 -38 2 -64 20 -20 13 -49 26 -63 28
-32 4 -66 51 -48 69 8 8 21 4 50 -19 49 -39 89 -46 130 -24 26 14 80 89 70 98
-1 1 -22 9 -47 17 -37 13 -40 16 -18 17 15 0 30 5 33 10 3 6 17 10 31 10 18 0
31 10 45 35 22 37 39 45 39 20 0 -35 21 -11 36 41 21 72 14 137 -17 170 -29
31 -36 30 -44 -6 -5 -22 -1 -40 15 -65 23 -37 21 -65 -3 -65 -10 0 -13 -8 -9
-25 5 -30 -18 -41 -98 -46 -30 -2 -60 -7 -67 -12 -7 -5 -16 -6 -22 -3 -5 3
-22 1 -37 -4 -19 -8 -30 -8 -38 0 -7 7 -5 10 7 10 9 0 17 5 17 11 0 6 7 8 15
5 9 -3 18 1 22 10 3 9 13 14 24 11 11 -3 22 -1 25 4 3 5 11 8 17 7 19 -4 57
21 57 37 0 7 -12 18 -27 23 -17 7 -21 11 -11 11 20 1 44 43 49 86 3 25 0 31
-20 33 -13 2 -41 -4 -62 -13 -42 -19 -72 -15 -63 10 13 32 -24 13 -91 -49 -68
-63 -112 -84 -149 -70 -10 4 -18 0 -22 -11 -5 -12 -14 -15 -32 -10 -19 5 -23
3 -19 -9 12 -30 -9 -24 -25 7 -24 47 -28 75 -12 88 11 9 14 8 14 -1 0 -8 3
-10 6 -7 4 4 2 13 -5 20 -12 15 -5 47 9 47 5 0 10 7 12 16 3 14 20 16 117 16
96 -1 123 3 165 21 67 28 80 41 61 57 -9 7 -20 33 -26 57 -14 55 -34 66 -129
69 -56 2 -85 -2 -118 -16 l-44 -20 5 68 c9 113 40 228 68 252 28 24 57 22 182
-12 66 -17 89 -29 144 -76 40 -35 70 -70 80 -94 13 -34 33 -52 33 -30 0 18
-62 102 -129 175 -39 42 -72 82 -72 87 -1 6 -2 15 -3 22 -2 19 -134 85 -195
97 -38 8 -73 8 -107 2 -97 -19 -107 -32 -44 -60 43 -19 45 -35 2 -21 -15 5
-62 14 -104 19 -95 13 -125 2 -189 -66 -130 -138 -195 -335 -218 -658 -5 -77
-13 -131 -20 -133 -7 -2 -8 -10 -1 -21 5 -11 5 -44 -1 -87 -16 -122 -18 -127
-45 -121 -20 3 -25 -1 -30 -22 -10 -46 -13 -51 -33 -51 -23 0 -111 95 -111
119 0 9 7 25 15 35 18 23 20 62 4 72 -6 3 -9 19 -5 35 5 26 2 29 -32 39 -20 5
-43 10 -50 10 -7 0 -31 17 -55 38 -84 77 -119 89 -152 52 -15 -17 -30 -19
-116 -18 -83 1 -103 -2 -119 -17 -27 -25 -25 -36 14 -74 32 -31 37 -32 107
-31 41 1 86 1 101 1 57 -2 82 -72 32 -91 -14 -6 -34 -10 -44 -10 -10 0 -31 -4
-45 -10 -26 -10 -26 -10 -8 -40 9 -16 21 -30 26 -30 5 0 7 -16 5 -36 -4 -34
-1 -39 50 -77 135 -99 179 -163 135 -198 -14 -12 -16 -12 -8 0 6 11 1 12 -26
7 -19 -4 -44 -8 -56 -9 -30 -3 -30 -27 1 -27 12 0 35 -11 50 -25 15 -14 29
-25 31 -25 2 0 28 20 58 44 52 42 154 86 201 86 42 0 43 -75 1 -116 -8 -9 -18
-27 -21 -42 -4 -15 -15 -44 -26 -64 -15 -31 -24 -38 -48 -38 -37 0 -119 38
-145 67 -19 21 -22 22 -42 8 -18 -12 -21 -22 -16 -50 4 -27 2 -35 -9 -35 -51
0 -33 -99 24 -135 20 -12 35 -33 40 -52 9 -34 41 -63 70 -63 23 0 48 -27 48
-51 0 -11 11 -37 25 -57 20 -29 25 -33 26 -17 1 11 5 -7 10 -39 5 -33 13 -64
18 -69 11 -11 4 -66 -10 -81 -4 -5 -14 8 -23 28 -8 20 -20 36 -25 36 -6 0 -11
7 -11 15 0 25 -27 65 -96 140 -20 22 -47 57 -60 77 -13 21 -28 38 -33 38 -12
0 -81 107 -81 125 0 9 -7 18 -15 21 -8 4 -15 10 -15 16 0 15 -24 35 -36 31 -6
-2 -17 10 -24 27 -7 18 -18 29 -25 26 -7 -2 -22 4 -34 15 -12 11 -29 19 -39
17 -9 -2 -25 7 -35 19 -10 13 -24 23 -30 23 -14 0 -95 119 -112 165 -22 57
-56 124 -65 130 -15 9 -12 28 3 22 7 -3 13 5 13 20 2 18 -2 23 -13 19 -11 -4
-13 -2 -9 9 3 9 0 15 -9 15 -10 0 -15 10 -15 28 0 21 -2 24 -10 12 -5 -8 -17
-15 -27 -15 -12 0 -20 -10 -24 -30 -4 -16 -7 -22 -8 -12 0 9 -8 17 -16 17 -8
0 -15 7 -15 15 0 18 16 20 23 3 4 -10 6 -10 6 0 1 7 -12 27 -29 45 -30 32 -38
61 -20 72 6 3 10 -5 10 -19 0 -53 18 -33 22 23 3 59 3 59 -17 43 -20 -17 -20
-17 -2 5 11 12 25 19 33 16 8 -3 14 0 14 5 0 6 16 19 35 28 19 9 35 20 35 25
0 5 7 9 15 9 8 0 15 6 15 14 0 7 10 16 22 19 19 5 20 8 7 23 -8 9 -32 26 -54
36 l-40 19 47 -6 c26 -3 56 -8 65 -12 29 -10 -26 46 -67 68 l-35 20 55 -5 55
-4 -40 19 c-34 15 -36 19 -16 19 24 0 24 0 5 15 -10 8 -30 14 -44 15 -20 0
-22 -2 -10 -10 12 -8 11 -10 -7 -10 -12 0 -25 5 -28 10 -4 6 -11 8 -16 5 -5
-3 -6 1 -2 11 4 11 -13 6 -63 -21 -68 -37 -69 -37 -44 -9 14 16 32 34 40 41
13 11 13 12 -2 13 -9 0 -22 -8 -27 -17 -9 -16 -10 -16 -11 -2 0 23 18 36 73
49 47 12 58 23 35 34 -7 3 12 3 42 0 53 -5 54 -4 30 10 -53 32 -157 10 -236
-50 -33 -26 -49 -31 -38 -12 4 7 3 8 -5 4 -6 -4 -9 -12 -6 -17 4 -5 -4 -13
-17 -18 -24 -9 -62 -45 -183 -172 -38 -40 -76 -74 -83 -76 -8 -1 -23 -10 -35
-20 -36 -30 31 55 100 127 101 107 104 111 101 133 -3 19 -12 14 -78 -43 -174
-151 -250 -208 -250 -192 0 12 58 62 71 62 6 0 7 5 4 10 -4 6 9 17 27 24 19 8
54 33 78 56 25 23 39 39 33 35 -7 -3 -13 -1 -13 5 0 7 9 14 20 17 32 8 23 20
-17 26 -39 4 -67 -8 -57 -24 3 -5 -8 -14 -25 -20 -17 -6 -31 -15 -31 -20 0 -5
-7 -9 -16 -9 -9 0 -12 5 -8 12 14 22 -87 -54 -139 -105 -108 -108 -172 -262
-185 -450 -10 -146 0 -236 35 -322 22 -52 37 -74 59 -85 16 -8 96 -81 177
-161 147 -145 147 -145 147 -191 0 -67 -10 -108 -27 -108 -8 0 -28 -8 -43 -17
-28 -16 -30 -16 -67 9 -42 28 -83 43 -83 32 0 -4 11 -20 25 -34 l26 -27 -29
-31 c-16 -17 -35 -45 -42 -62 -15 -37 -181 -158 -285 -207 -134 -65 -138 -67
-168 -128 -21 -41 -30 -75 -32 -119 -4 -69 -51 -214 -87 -268 -13 -19 -46 -60
-73 -90 -48 -55 -48 -56 -51 -132 l-2 -76 1149 0 c964 0 1149 2 1149 14 0 12
108 56 138 56 6 0 14 -16 18 -35 l6 -35 614 0 614 0 -18 20 c-9 12 -17 24 -17
28 -1 4 -6 16 -12 27 -6 11 -12 52 -14 90 l-4 70 35 0 c28 0 36 4 38 22 2 13
-5 27 -20 37 -12 9 -17 16 -10 16 6 0 11 4 9 9 -2 8 69 71 80 71 5 0 -6 -21
-23 -40 -9 -11 -14 -64 -17 -183 l-4 -167 1864 0 c1766 0 1864 1 1869 18 4 9
17 41 30 70 13 29 24 57 24 62 0 6 5 10 11 10 7 0 10 -17 7 -45 -2 -30 1 -45
9 -45 6 0 17 -16 23 -35 l12 -35 819 0 819 0 2 28 c1 25 3 36 8 55 7 26 1 59
-15 77 -10 11 -15 20 -10 20 4 0 14 -8 22 -17 13 -16 14 -13 10 27 -3 25 -8
54 -13 64 -5 13 -4 17 3 13 17 -11 20 14 7 52 -7 21 -8 37 -3 39 14 5 11 32
-3 32 -10 0 -10 2 0 9 15 9 10 56 -16 136 -8 28 -16 66 -17 85 -1 19 -7 50
-13 68 -6 17 -7 32 -3 32 7 0 -11 157 -24 208 -3 13 -8 49 -11 80 -2 31 -6 75
-9 97 l-3 40 13 -30 c8 -16 14 -39 15 -50 0 -11 7 -31 15 -45 l15 -25 -5 29
c-2 16 -9 74 -15 130 -6 56 -12 120 -15 144 -3 27 -1 41 5 37 6 -3 10 -18 10
-33 0 -15 5 -34 11 -42 8 -11 9 2 5 49 -3 35 -6 73 -6 83 0 27 -20 12 -21 -15
l0 -22 -9 23 c-5 12 -13 22 -17 22 -22 0 -22 378 0 391 5 4 12 40 15 81 3 60
1 76 -12 87 -14 12 -16 10 -17 -15 -1 -16 -1 -36 0 -46 1 -9 -3 -19 -9 -23 -7
-4 -10 30 -10 105 0 61 -5 144 -10 183 -18 123 -106 361 -141 383 -19 12 -18
-2 5 -51 33 -69 40 -105 22 -105 -7 0 -16 9 -19 20 -3 11 -1 18 4 14 13 -8 11
1 -8 41 -13 27 -26 38 -57 47 -23 7 -45 18 -51 25 -13 16 -65 35 -65 23 0 -18
-36 -16 -57 3 -13 11 -23 15 -23 9 0 -6 -6 -9 -12 -7 -24 9 -38 -11 -47 -65
-6 -41 -9 -47 -11 -25 -2 17 -2 47 -1 68 3 36 1 37 -24 33 -32 -6 -54 -23 -65
-51 -8 -18 -9 -18 -10 5 -1 24 -1 24 -15 6 -8 -11 -15 -40 -15 -65 -1 -33 -3
-42 -10 -30 -13 23 -7 128 8 138 7 4 34 9 60 10 26 0 61 6 77 11 28 9 63 8
170 -4 91 -11 121 -20 188 -54 4 -2 7 0 7 5 0 14 -80 63 -112 70 -16 3 -31 10
-34 14 -3 5 -9 7 -14 4 -5 -3 -19 -1 -30 5 -11 6 -62 13 -111 15 -50 2 -94 6
-97 9 -3 4 -14 -2 -24 -11 -18 -16 -21 -16 -49 1 -17 10 -37 15 -47 11 -9 -4
-48 -8 -85 -10 -42 -2 -77 -10 -90 -19 -12 -9 -45 -31 -73 -50 -28 -19 -61
-48 -74 -65 -18 -27 -20 -34 -9 -48 8 -9 12 -26 11 -38 -2 -13 1 -26 7 -29 6
-4 22 -44 36 -89 14 -45 36 -97 47 -115 17 -27 19 -38 10 -53 -9 -13 -8 -19 1
-22 8 -3 4 -12 -10 -26 -16 -15 -23 -33 -23 -61 0 -21 -4 -41 -9 -44 -5 -4
-33 16 -63 43 -29 26 -68 56 -85 65 -28 14 -33 22 -33 54 0 20 12 67 27 104
l26 68 -48 51 -48 51 7 297 c6 286 10 420 21 771 7 222 32 820 44 1055 6 105
13 276 16 380 3 105 8 206 10 225 2 19 7 107 11 195 3 88 6 162 6 165 0 3 0
17 -1 33 l-1 27 -850 0 c-467 0 -850 -1 -851 -2z m693 -2024 c75 -26 217 -143
279 -229 61 -85 97 -202 92 -295 -1 -14 -2 -50 -4 -80 -1 -30 -4 -61 -7 -67
-7 -21 -24 -15 -17 6 8 26 14 174 7 185 -3 5 -6 28 -6 50 -1 25 -5 40 -12 39
-11 -2 -30 42 -26 60 1 4 -3 7 -9 7 -8 0 -9 -11 -5 -32 4 -24 3 -29 -4 -18
-13 19 -13 70 0 70 5 0 7 7 4 15 -4 8 -13 15 -20 15 -8 0 -17 13 -20 29 -4 17
-15 38 -26 48 -20 18 -20 17 -13 -5 6 -22 5 -23 -15 -12 -18 10 -20 14 -9 21
14 8 12 10 -13 13 -7 0 -16 15 -19 31 -5 21 -7 24 -9 10 -1 -11 -2 -24 -1 -28
4 -21 -18 6 -24 30 -3 14 -13 36 -21 47 -14 20 -14 20 -15 1 0 -15 -3 -14 -11
8 -5 15 -14 27 -18 27 -5 0 -26 11 -46 25 -20 14 -40 22 -45 19 -5 -3 -17 -1
-27 5 -10 5 -37 12 -60 14 -23 2 -46 7 -50 12 -11 12 125 -5 170 -21z m-2281
-131 c6 -16 9 -49 6 -75 -2 -27 -2 -48 1 -48 2 0 13 11 24 26 19 23 22 24 38
9 23 -21 15 -110 -13 -145 l-20 -25 7 38 c4 21 4 47 1 59 -7 19 -9 19 -36 -12
-16 -17 -29 -34 -29 -37 0 -11 -55 -93 -62 -93 -4 0 -6 23 -5 51 2 57 -16 77
-33 37 -8 -19 -9 -17 -4 12 4 19 10 40 16 46 16 20 49 3 55 -28 5 -26 8 -28
21 -15 11 11 14 37 13 102 -1 49 -4 92 -7 97 -4 6 -17 8 -30 5 -20 -3 -22 -2
-13 9 20 24 58 17 70 -13z m665 -138 c8 -13 12 -30 8 -36 -10 -16 -14 -72 -18
-261 l-4 -158 24 6 c49 12 56 0 34 -56 -11 -27 -16 -50 -12 -51 4 0 30 0 59 1
28 1 61 -3 72 -9 26 -14 36 -48 20 -67 -10 -13 -15 -12 -34 6 -18 17 -33 21
-76 18 -53 -3 -53 -3 -62 -42 -7 -26 -6 -55 3 -92 9 -35 11 -80 6 -130 -8 -99
13 -188 63 -266 42 -66 48 -68 186 -43 44 8 103 15 131 15 44 0 96 12 257 60
24 8 29 5 42 -20 21 -41 20 -41 -30 -20 -43 19 -46 19 -97 1 -73 -26 -108 -43
-108 -53 0 -4 7 -8 14 -8 8 0 27 -11 41 -24 l26 -24 -23 -46 c-25 -52 -33 -56
-44 -23 -7 23 -49 67 -64 67 -20 0 -40 -13 -40 -27 0 -11 -7 -14 -22 -10 -15
4 -31 -3 -53 -22 -28 -24 -30 -30 -22 -56 7 -20 7 -30 -1 -33 -16 -5 12 -66
66 -142 25 -36 135 -158 245 -273 110 -114 198 -209 196 -211 -2 -2 -21 -11
-41 -21 -20 -9 -54 -38 -75 -63 -21 -26 -41 -48 -45 -50 -5 -2 -8 -10 -8 -18
0 -16 -26 -19 -35 -4 -4 6 -11 8 -16 5 -5 -4 -9 3 -9 14 0 11 -18 33 -42 52
-55 42 -118 110 -118 127 0 7 -8 12 -17 10 -13 -2 -19 5 -21 26 -2 18 -11 30
-23 33 -10 3 -19 8 -19 12 0 3 -17 25 -39 48 -21 24 -45 57 -52 75 -7 18 -21
42 -31 52 -19 21 -21 29 -19 59 1 9 -3 17 -8 17 -6 0 -11 5 -11 12 0 6 -7 19
-15 28 -25 28 -175 333 -175 357 0 12 -6 26 -13 30 -7 4 -26 29 -43 54 -16 25
-35 44 -42 41 -15 -5 -16 14 -1 24 17 10 4 118 -18 157 -13 21 -18 45 -16 67
3 19 -1 49 -8 65 -11 28 -15 37 -18 50 0 3 -10 1 -21 -5 -16 -9 -22 -8 -26 5
-9 23 15 65 33 58 23 -9 33 16 33 79 0 40 -5 62 -17 73 -9 9 -12 20 -7 23 5 4
11 36 13 72 2 36 7 67 12 68 11 4 12 32 1 32 -15 0 -52 -40 -52 -56 0 -9 -13
-29 -30 -46 -22 -21 -30 -39 -30 -63 0 -24 -6 -38 -20 -45 -23 -12 -27 -30 -7
-30 8 0 19 -11 25 -25 12 -26 3 -42 -36 -65 -15 -9 -15 -11 6 -28 l24 -18 -27
-18 c-19 -13 -24 -21 -16 -30 6 -7 9 -23 6 -35 -2 -12 0 -33 5 -47 8 -19 6
-24 -6 -24 -13 0 -14 -3 -6 -13 14 -16 -23 -75 -61 -100 -18 -11 -23 -22 -20
-40 4 -17 -2 -30 -21 -45 -36 -28 -56 -70 -56 -117 0 -26 -11 -57 -30 -90 -46
-77 -42 -85 33 -80 34 3 97 7 140 10 64 4 86 10 120 33 63 43 71 47 62 33 -4
-7 -35 -31 -68 -52 -40 -26 -53 -39 -40 -39 12 0 31 -9 44 -20 l24 -21 -30 6
c-125 23 -295 22 -342 -3 -10 -6 -27 -25 -37 -43 l-19 -32 29 7 c16 4 31 8 34
9 3 0 21 -9 40 -21 l35 -22 -31 4 c-17 1 -44 -3 -60 -10 l-29 -12 41 -1 c22
-1 44 -5 50 -10 5 -5 26 -14 47 -21 50 -16 34 -35 -25 -31 l-43 2 34 -26 c19
-14 38 -25 41 -25 8 0 90 -77 90 -84 0 -16 -33 -3 -74 29 -115 88 -203 142
-213 131 -3 -3 5 -19 17 -36 17 -24 70 -142 70 -157 0 -1 -7 0 -16 4 -14 5
-15 3 -5 -15 7 -12 8 -22 3 -22 -5 0 -15 19 -21 43 -18 60 -63 148 -73 145 -5
-2 -28 -37 -50 -78 -77 -141 -198 -309 -303 -417 -71 -73 -100 -110 -92 -116
28 -19 293 21 394 59 38 15 70 16 256 9 116 -5 254 -9 306 -9 l95 -1 12 -67
c7 -37 24 -106 39 -154 21 -69 25 -97 20 -142 -11 -98 -5 -92 -108 -92 -51 0
-130 -4 -177 -9 -47 -6 -157 -13 -245 -17 -88 -3 -167 -8 -175 -9 -8 -2 -80
-6 -160 -10 -80 -4 -161 -9 -180 -10 -19 -2 -96 -6 -171 -10 l-136 -7 -6 23
c-12 45 -7 84 20 161 l27 76 -17 74 c-24 106 -27 135 -13 135 40 -1 66 5 66
14 0 6 -7 8 -16 5 -11 -4 -22 1 -31 14 -17 25 -33 26 -33 3 -1 -12 -6 -8 -17
12 -9 17 -50 64 -92 105 -42 41 -90 96 -106 121 -17 28 -48 59 -76 76 l-48 29
157 165 c86 91 178 189 204 219 39 45 47 51 48 33 0 -12 -14 -47 -31 -77 -16
-31 -27 -56 -24 -56 38 0 363 304 529 494 l60 68 -12 56 c-8 36 -8 60 -2 66
15 15 50 -23 50 -56 0 -34 26 -38 40 -5 17 41 42 247 35 288 -6 34 -3 43 15
59 25 21 28 44 32 228 2 57 0 106 -5 109 -4 2 -4 10 0 16 4 6 6 26 4 43 -3 36
25 67 39 44 19 -31 31 -128 20 -175 -11 -51 -5 -108 15 -141 7 -11 15 -31 17
-45 5 -32 33 64 42 141 4 36 12 60 23 68 14 10 18 26 17 75 -1 35 -6 63 -13
65 -6 2 -11 16 -11 32 0 22 6 29 27 35 39 9 73 -31 74 -88 0 -23 4 -51 9 -62
8 -18 9 -18 9 5 2 50 13 69 42 75 34 8 46 22 30 38 -7 7 -12 6 -17 -6 -3 -9
-10 -17 -16 -17 -5 0 -7 4 -4 9 4 5 0 12 -6 14 -10 4 -9 8 2 17 11 9 12 13 3
17 -21 8 -16 81 6 93 28 14 38 13 59 -10 16 -17 17 -29 10 -97 -5 -43 -9 -85
-10 -93 0 -8 0 -55 1 -105 2 -85 3 -88 16 -60 8 17 14 26 15 20 0 -5 5 -2 11
8 5 9 21 17 33 17 29 0 43 30 22 45 -10 8 -11 16 -4 28 8 15 4 20 -21 30 -38
14 -35 32 5 32 24 0 30 -5 32 -27 2 -16 8 -28 14 -28 6 0 8 -13 6 -30 -3 -22
-2 -28 6 -20 12 12 13 16 15 56 0 14 5 22 11 19 12 -7 13 5 2 23 -5 7 -16 10
-25 6 -14 -5 -17 1 -17 43 0 28 7 58 16 71 16 23 58 30 69 12 13 -20 25 -9 25
23 0 37 -15 57 -43 57 -10 0 -15 5 -12 10 12 19 54 10 71 -15z m-823 -175 c-3
-11 -1 -20 4 -20 5 0 15 -11 21 -25 9 -20 8 -33 -7 -67 l-19 -43 5 40 c4 30 1
44 -11 54 -13 11 -17 10 -22 -5 -17 -50 -50 -111 -71 -130 -28 -26 -76 -141
-62 -150 5 -3 7 -10 3 -15 -3 -5 -10 -6 -16 -3 -7 5 -9 0 -6 -12 3 -11 -3 -28
-14 -38 -18 -19 -18 -19 -18 8 0 15 4 25 8 22 5 -3 6 8 4 24 -8 55 33 150 93
213 31 32 53 62 50 67 -5 9 50 100 60 100 2 0 1 -9 -2 -20z m2768 -318 c-8
-15 -3 -23 25 -46 l35 -28 54 23 c46 19 59 21 80 11 14 -7 48 -12 75 -12 45 0
50 -2 56 -26 8 -31 -2 -43 -52 -56 -47 -12 -74 -14 -94 -5 -8 4 -21 3 -29 -2
-12 -8 -13 -16 -2 -50 6 -23 9 -46 5 -52 -11 -18 -104 -3 -129 21 -12 11 -27
20 -34 20 -6 0 -26 7 -43 16 -25 13 -36 14 -50 5 -13 -8 -8 6 16 44 20 30 36
59 36 64 0 4 9 16 20 26 11 10 18 20 15 23 -5 5 13 42 21 42 2 0 0 -8 -5 -18z
m-2681 -152 c0 -13 -10 -24 -27 -31 -18 -7 -23 -13 -16 -20 8 -8 18 -6 34 4
13 8 34 18 47 22 20 6 22 3 22 -38 0 -49 -17 -107 -31 -107 -5 0 -9 8 -9 17 0
13 -3 14 -11 6 -15 -15 -39 -5 -39 16 -1 14 -2 14 -14 -1 -7 -10 -16 -18 -20
-18 -3 0 -6 8 -6 18 0 14 -2 15 -10 2 -8 -12 -10 -11 -10 8 0 30 26 92 39 92
6 0 11 8 11 18 0 22 8 32 27 32 7 0 13 -9 13 -20z m3020 -143 c51 -29 70 -48
70 -68 0 -14 -7 -16 -42 -12 -24 3 -54 11 -68 18 -29 15 -111 35 -141 35 -26
0 -16 16 24 40 37 23 103 17 157 -13z m-564 -67 c-5 -55 -3 -76 10 -95 13 -20
19 -23 36 -14 25 14 52 -6 28 -21 -8 -5 -18 -7 -22 -4 -4 3 -17 0 -28 -6 -16
-8 -20 -21 -20 -60 0 -29 5 -50 13 -53 7 -3 5 -6 -5 -6 -25 -1 -22 -20 12 -71
16 -25 30 -48 30 -53 0 -11 -42 -45 -83 -66 -36 -18 -38 -18 -59 -1 -20 16
-21 21 -10 56 8 26 10 54 4 84 -8 44 2 118 28 204 7 24 9 61 5 92 -6 50 -5 53
22 68 15 8 32 15 36 16 5 0 6 -32 3 -70z m443 -20 c38 0 126 -25 149 -43 6 -5
12 -20 12 -34 0 -18 -9 -28 -35 -39 -43 -18 -132 -18 -164 0 -23 13 -27 12
-44 -10 -13 -17 -29 -24 -51 -24 -41 0 -47 -6 -34 -36 13 -28 23 -29 62 -9 53
28 91 -6 60 -53 -13 -20 -21 -23 -51 -19 -20 4 -43 13 -53 22 -9 8 -31 15 -48
15 -33 0 -72 38 -72 71 0 10 -4 20 -9 23 -17 11 -18 67 -1 88 13 16 29 21 69
22 34 1 55 6 61 16 5 8 10 12 10 8 0 -4 12 -1 26 7 19 9 34 11 51 4 13 -5 41
-9 62 -9z m-332 -267 c27 -12 36 -27 61 -96 l30 -82 46 2 c26 1 62 10 82 22
47 28 69 26 91 -6 32 -48 43 -82 50 -158 6 -71 7 -75 54 -122 l48 -48 93 -6
c51 -3 102 -9 112 -14 16 -7 18 -5 13 9 -12 31 3 37 34 14 34 -25 37 -38 10
-38 -35 0 -43 -71 -13 -111 38 -50 53 -123 21 -104 -15 10 -10 -22 6 -39 26
-25 118 -42 212 -37 51 2 65 -1 81 -17 30 -30 43 -84 49 -203 6 -108 -3 -149
-31 -149 -18 0 -81 29 -129 59 -31 19 -48 22 -85 18 -26 -2 -54 -7 -62 -11
-13 -5 -19 14 -34 116 -24 161 -23 161 -25 106 0 -25 -5 -48 -10 -50 -5 -1
-15 -25 -24 -53 l-15 -50 -1 86 c-1 52 -7 101 -16 122 -17 42 -20 71 -5 62 12
-7 13 15 2 31 -7 11 -45 34 -56 34 -4 0 -1 -9 6 -19 9 -15 9 -25 1 -43 -12
-23 -12 -23 -12 -1 -1 12 -9 24 -20 28 -31 9 -81 73 -81 102 0 23 2 24 17 12
15 -13 15 -12 5 7 -6 12 -29 29 -51 38 -27 10 -46 27 -57 48 -23 46 -53 77
-96 99 -21 11 -47 33 -60 49 -21 28 -89 80 -105 80 -5 0 7 -12 25 -26 26 -21
30 -29 21 -40 -6 -8 -8 -25 -5 -39 9 -36 -11 -31 -28 8 -14 30 -15 31 -11 5 4
-32 -10 -46 -20 -20 -4 9 -10 44 -12 76 -5 54 -4 58 13 52 12 -4 6 6 -14 24
-35 32 -58 39 -48 15 3 -10 -1 -15 -12 -15 -26 0 -203 -195 -222 -244 -11 -30
-30 -26 -30 5 0 11 -5 17 -10 14 -6 -4 -7 -12 -3 -18 8 -13 6 -12 -64 42 -24
18 -43 41 -43 51 0 11 -8 23 -17 29 -10 5 -15 13 -11 16 4 4 18 -4 32 -18 17
-17 36 -25 61 -25 19 0 42 -6 50 -12 11 -9 15 -10 15 -1 0 7 5 9 11 5 8 -4 8
0 0 15 -9 17 -16 19 -30 11 -14 -7 -20 -6 -25 6 -3 8 -10 13 -14 10 -5 -3 -18
1 -28 9 -10 8 -28 15 -39 16 -18 1 -18 2 -2 6 10 3 16 10 14 17 -6 14 90 13
105 -2 14 -14 56 -2 61 19 6 20 -8 35 -38 41 -30 5 -26 34 5 29 50 -8 73 -6
77 6 3 7 -8 18 -24 25 -22 9 -24 12 -10 15 9 3 17 11 17 19 0 8 5 14 11 14 12
0 51 44 92 103 30 45 29 50 -30 78 -45 22 -5 14 44 -8z m745 -156 c-24 -25
-29 -62 -11 -73 6 -3 15 -1 19 6 4 7 9 8 11 4 2 -5 21 -24 42 -41 30 -27 41
-31 61 -23 19 7 77 7 139 1 4 -1 7 -11 6 -23 0 -16 -2 -18 -6 -8 -4 10 -10 3
-18 -20 -10 -27 -17 -34 -34 -33 -11 2 -21 -1 -21 -5 0 -4 -9 -8 -20 -8 -11 0
-20 4 -20 8 0 5 -16 8 -35 6 -26 -2 -35 -7 -35 -20 0 -24 -47 -43 -66 -27 -8
6 -14 29 -14 50 0 37 -1 39 -32 39 -44 0 -118 31 -118 50 0 8 34 47 75 87 41
39 75 78 76 85 0 7 5 3 11 -10 9 -18 7 -26 -10 -45z m-6566 -195 c5 -18 21
-40 35 -49 41 -29 57 -56 63 -109 9 -79 4 -85 -63 -77 -60 7 -120 35 -88 41 9
2 17 5 17 8 0 8 -73 99 -86 107 -16 9 -19 43 -4 52 6 4 17 1 25 -5 8 -7 22
-10 30 -6 12 4 14 -1 9 -32 -8 -55 12 -76 75 -78 33 0 51 3 51 11 0 17 -129
145 -147 145 -25 0 -73 -30 -73 -46 0 -8 12 -37 26 -65 30 -61 11 -63 -23 -3
-29 50 -29 91 -1 121 19 21 30 23 83 21 58 -3 60 -4 71 -36z"/>
<path d="M12280 2335 c0 -12 56 -36 92 -39 4 -1 13 -10 21 -20 9 -12 20 -17
31 -13 9 4 16 2 16 -3 0 -6 6 -10 13 -10 7 0 29 -9 50 -20 21 -11 42 -18 47
-15 4 3 10 2 12 -2 3 -9 161 -87 196 -98 20 -6 22 -3 22 29 0 31 -3 35 -32 41
-18 4 -37 10 -43 14 -5 4 -39 16 -75 26 -36 10 -69 22 -74 27 -6 4 -18 8 -28
8 -10 0 -18 5 -18 11 0 6 -7 9 -15 6 -8 -4 -17 -2 -20 3 -3 5 -32 14 -65 21
-33 6 -60 16 -60 20 0 5 -11 9 -25 9 -14 0 -25 5 -25 10 0 6 -4 10 -10 10 -5
0 -10 -7 -10 -15z"/>
<path d="M12310 469 c-228 -15 -425 -33 -437 -38 -42 -19 -53 -52 -63 -187 -5
-71 -10 -155 -10 -186 l0 -58 490 0 490 0 0 250 0 250 -27 -1 c-16 -1 -215
-14 -443 -30z"/>
</g>
</svg>
